<svg id="SvgjsSvg1023" xmlns="http://www.w3.org/2000/svg" version="1.1" xmlns:xlink="http://www.w3.org/1999/xlink" xmlns:svgjs="http://svgjs.com/svgjs" width="1000" height="106" viewBox="0 0 1000 106"><title>bg copy 10</title><desc>Created with Avocode.</desc><defs id="SvgjsDefs1024"><clipPath id="SvgjsClipPath1027"><path id="SvgjsPath1026" d="M490 2179H1474C1476.76 2179 1479 2181.24 1479 2184V2274C1479 2276.76 1476.76 2279 1474 2279H490C487.238 2279 485 2276.76 485 2274V2184C485 2181.24 487.238 2179 490 2179Z " fill="#ffffff"></path></clipPath><clipPath id="SvgjsClipPath1030"><path id="SvgjsPath1029" d="M484 2185H1468C1470.76 2185 1473 2187.24 1473 2190V2280C1473 2282.76 1470.76 2285 1468 2285H484C481.238 2285 479 2282.76 479 2280V2190C479 2187.24 481.238 2185 484 2185Z " fill="#ffffff"></path></clipPath></defs><path id="SvgjsPath1025" d="M490 2179H1474C1476.76 2179 1479 2181.24 1479 2184V2274C1479 2276.76 1476.76 2279 1474 2279H490C487.238 2279 485 2276.76 485 2274V2184C485 2181.24 487.238 2179 490 2179Z " fill-opacity="0" fill="#ffffff" stroke-dashoffset="0" stroke-linejoin="miter" stroke-linecap="butt" stroke-opacity="1" stroke="#406bb1" stroke-miterlimit="50" stroke-width="2" clip-path="url(&quot;#SvgjsClipPath1027&quot;)" transform="matrix(1,0,0,1,-479,-2179)"></path><path id="SvgjsPath1028" d="M484 2185H1468C1470.76 2185 1473 2187.24 1473 2190V2280C1473 2282.76 1470.76 2285 1468 2285H484C481.238 2285 479 2282.76 479 2280V2190C479 2187.24 481.238 2185 484 2185Z " fill-opacity="0" fill="#ffffff" stroke-dashoffset="0" stroke-linejoin="miter" stroke-linecap="butt" stroke-opacity="1" stroke="#406bb1" stroke-miterlimit="50" stroke-width="4" clip-path="url(&quot;#SvgjsClipPath1030&quot;)" transform="matrix(1,0,0,1,-479,-2179)"></path></svg>