<svg id="SvgjsSvg1000" xmlns="http://www.w3.org/2000/svg" version="1.1" xmlns:xlink="http://www.w3.org/1999/xlink" xmlns:svgjs="http://svgjs.com/svgjs" width="48" height="48" viewBox="0 0 48 48"><title>icon-excel</title><desc>Created with Avocode.</desc><defs id="SvgjsDefs1001"></defs><path id="SvgjsPath1007" d="M551.453 867.538H534.539V873.047H540.135V876.796H534.539V880.461H540.077V884.153H534.539V887.845H540.077V891.539H534.539V895.23H540.077V898.922H534.539V904.46H551.453C552.305 904.46 553 903.74 553 902.855V869.144C553 868.26 552.305 867.538 551.453 867.538ZM549.307 898.922H541.923V895.23H549.307ZM549.307 891.539H541.923V887.845H549.307ZM549.307 884.153H541.923V880.461H549.307ZM549.307 876.768H541.923V873.077H549.307ZM505 867.333V904.6669999999999L532.692 909.9999999999999V861.9999999999999ZM519.295 889.288C519.173 889.0600000000001 519.0469999999999 888.643 518.9159999999999 888.0360000000001H518.866C518.806 888.322 518.661 888.7570000000001 518.434 889.341L515.201 895.378H510.182L516.141 886.029L510.68999999999994 876.678H515.8149999999999L518.4879999999999 882.285C518.6969999999999 882.728 518.8829999999999 883.254 519.049 883.862H519.101C519.206 883.496 519.402 882.954 519.688 882.231L522.66 876.676H527.353L521.746 885.9480000000001L527.51 895.3760000000001L522.516 895.378Z " fill="#406bb1" fill-opacity="1" transform="matrix(1,0,0,1,-505,-862)"></path></svg>