<svg id="SvgjsSvg1014" xmlns="http://www.w3.org/2000/svg" version="1.1" xmlns:xlink="http://www.w3.org/1999/xlink" xmlns:svgjs="http://svgjs.com/svgjs" width="17" height="15" viewBox="0 0 17 15"><title>icon-arrow-left</title><desc>Created with Avocode.</desc><defs id="SvgjsDefs1015"></defs><path id="SvgjsPath1016" d="M512 1405.99H500.421L504.695 1410.26C505.09 1410.66 505.09 1411.3 504.695 1411.7C504.3 1412.0900000000001 503.658 1412.0900000000001 503.263 1411.7L497.29499999999996 1405.73C497.092 1405.53 496.99499999999995 1405.26 496.99999999999994 1405V1404.99V1404.99C496.99499999999995 1404.73 497.0919999999999 1404.46 497.29499999999996 1404.26L503.263 1398.29C503.65799999999996 1397.8999999999999 504.29999999999995 1397.8999999999999 504.695 1398.29C505.09 1398.69 505.09 1399.33 504.695 1399.73L500.421 1404H512C512.552 1404 513 1404.44 513 1404.99C513 1405.55 512.552 1405.99 512 1405.99Z " fill="#406bb1" fill-opacity="1" transform="matrix(1,0,0,1,-496,-1397)"></path></svg>