<svg id="SvgjsSvg1008" xmlns="http://www.w3.org/2000/svg" version="1.1" xmlns:xlink="http://www.w3.org/1999/xlink" xmlns:svgjs="http://svgjs.com/svgjs" width="40" height="48" viewBox="0 0 40 48"><title>icon-doc</title><desc>Created with Avocode.</desc><defs id="SvgjsDefs1009"></defs><path id="SvgjsPath1010" d="M868.185 870.433H866.7919999999999V904.915C866.7919999999999 907.2049999999999 864.9409999999999 909.0699999999999 862.6669999999999 909.0699999999999H837.3249999999999V910.348C837.3249999999999 911.812 838.5049999999999 913 839.9569999999999 913H868.1799999999998C869.6329999999998 913 870.8119999999998 911.812 870.8119999999998 910.348V873.0849999999999C870.8119999999998 871.6209999999999 869.6379999999998 870.4329999999999 868.1849999999998 870.4329999999999ZM862.662 907.566C864.115 907.566 865.294 906.378 865.294 904.9150000000001V867.6510000000001C865.294 866.1880000000001 864.115 865.0000000000001 862.662 865.0000000000001H843.8580000000001V865.8770000000001C843.868 865.9670000000001 843.873 866.0630000000001 843.873 866.158V873.421C843.873 875.481 842.211 877.1550000000001 840.166 877.1550000000001H832.956C832.8820000000001 877.1550000000001 832.802 877.1500000000001 832.7280000000001 877.1450000000001H831.812V904.9150000000001C831.812 906.378 832.991 907.566 834.444 907.566ZM849.083 898.554H839.8829999999999C839.1959999999999 898.554 838.6389999999999 897.992 838.6389999999999 897.3009999999999C838.6389999999999 896.6089999999999 839.1959999999999 896.0469999999999 839.8829999999999 896.0469999999999H849.088C849.775 896.0469999999999 850.332 896.6089999999999 850.332 897.3009999999999C850.332 897.992 849.77 898.554 849.083 898.554ZM858.288 892.158H839.883C839.196 892.158 838.639 891.596 838.639 890.905C838.639 890.213 839.196 889.651 839.883 889.651H858.288C858.975 889.651 859.532 890.213 859.532 890.905C859.532 891.596 858.975 892.158 858.288 892.158ZM839.883 882.859H858.288C858.975 882.859 859.532 883.421 859.532 884.1120000000001C859.532 884.8040000000001 858.975 885.3660000000001 858.288 885.3660000000001H839.883C839.196 885.3660000000001 838.639 884.8040000000001 838.639 884.1120000000001C838.639 883.421 839.196 882.859 839.883 882.859ZM832.956 875.651H840.166C840.171 875.651 840.181 875.651 840.186 875.651C841.39 875.641 842.366 874.659 842.3760000000001 873.4459999999999C842.3760000000001 873.4409999999999 842.3760000000001 873.4309999999999 842.3760000000001 873.4259999999999V866.1579999999999C842.3760000000001 865.4859999999999 841.8280000000001 865.0399999999998 841.2610000000001 865.0399999999998C840.9870000000001 865.0399999999998 840.714 865.1399999999999 840.4850000000001 865.3709999999999L832.1700000000001 873.7459999999999C831.474 874.4479999999999 831.9660000000001 875.6509999999998 832.956 875.6509999999998Z " fill="#406bb1" fill-opacity="1" transform="matrix(1,0,0,1,-831,-865)"></path></svg>