<svg id="SvgjsSvg1000" xmlns="http://www.w3.org/2000/svg" version="1.1" xmlns:xlink="http://www.w3.org/1999/xlink" xmlns:svgjs="http://svgjs.com/svgjs" width="112" height="89" viewBox="0 0 112 89"><title>icon-01</title><desc>Created with Avocode.</desc><defs id="SvgjsDefs1001"></defs><path id="SvgjsPath1007" d="M560 945C568.84884 945 576.44731 950.27162 579.73327 957.79968C579.09548 958.3665699999999 578.3995 958.9873699999999 577.6534099999999 959.65595C574.9381699999999 952.58809 567.9951899999999 947.562 559.8590099999999 947.562C554.9574199999998 947.562 550.4890999999999 949.38616 547.1173599999998 952.38196L547.0340099999999 952.3000000000001L518.9249699999998 979.9396300000001C520.9926199999998 979.28853 523.1965699999998 978.9370000000001 525.4840099999998 978.9370000000001C534.2235499999998 978.9370000000001 541.7441899999998 984.0676000000001 545.1005499999998 991.4317800000001C544.4443099999997 992.1734300000002 543.8114699999998 992.9029200000001 543.2056499999998 993.6175300000001C540.5400299999998 986.54339 533.6112699999998 981.5000000000001 525.4840099999998 981.5000000000001C515.0510099999998 981.5000000000001 506.5940099999998 989.8110000000001 506.5940099999998 1000.0600000000001C506.5940099999998 1010.3100000000001 515.0510099999998 1018.62 525.4840099999998 1018.62C528.8029299999998 1018.62 531.9219799999997 1017.77904 534.6324599999998 1016.30219C534.7206199999998 1017.26556 534.8513999999998 1018.16907 535.0080799999998 1019.0058C532.1377599999998 1020.40407 528.9042299999999 1021.19001 525.4840099999998 1021.19001C513.6190099999998 1021.19001 504.0000099999998 1011.73001 504.0000099999998 1000.06001C504.0000099999998 994.76148 505.9846099999998 989.9182900000001 509.2628299999998 986.2099900000001L509.1450099999998 986.09901L546.2310099999997 949.63201L546.3909499999997 949.78927C550.0951599999997 946.79635 554.8345399999997 945.00001 560.0000099999997 945.00001ZM594.516 957.812C606.381 957.812 616 967.27 616 978.937C616 985.79855 612.67354 991.8948 607.52005 995.75297L577.01369 1025.75277C573.08809 1030.7676800000002 566.92718 1033.99999 560 1033.99999C548.143 1033.99999 538.531 1024.52999 538.531 1012.85999C538.531 1007.56379 540.5073199999999 1002.72384 543.77312 999.0153200000001L543.656 998.9049900000001L580.7429999999999 962.4369900000002L580.9020499999999 962.5933900000001C584.60822 959.6052900000001 589.3490899999999 957.8119900000002 594.516 957.8119900000002ZM613.406 979.062C613.406 968.742 604.886 960.375 594.375 960.375C589.80405 960.375 585.60962 961.95732 582.32867 964.59448L582.197 964.465L553.46344 992.71636C555.52445 992.0686000000001 557.72074 991.719 560 991.719C571.857 991.719 581.469 1001.1800000000001 581.469 1012.86C581.469 1014.92662 581.1675600000001 1016.92426 580.6056000000001 1018.8125200000001L605.9171500000001 993.9219800000001C610.4693100000001 990.50732 613.4059900000001 985.1214100000001 613.4059900000001 979.0620000000001ZM541.125 1012.87C541.125 1023.13 549.576 1031.44 560 1031.44C570.424 1031.44 578.875 1023.1300000000001 578.875 1012.87C578.875 1002.62 570.424 994.312 560 994.312C549.576 994.312 541.125 1002.62 541.125 1012.87Z " fill="#406bb1" fill-opacity="1" transform="matrix(1,0,0,1,-504,-945)"></path></svg>