<svg id="SvgjsSvg1008" xmlns="http://www.w3.org/2000/svg" version="1.1" xmlns:xlink="http://www.w3.org/1999/xlink" xmlns:svgjs="http://svgjs.com/svgjs" width="19" height="18" viewBox="0 0 19 18"><title>icon-user</title><desc>Created with Avocode.</desc><defs id="SvgjsDefs1009"></defs><path id="SvgjsPath1010" d="M506.002 627.712C504.639 627.939 503.036 628 499.999 628C496.96200000000005 628 495.36 627.939 493.997 627.712C492.088 627.394 490.999 626.7139999999999 490.999 625.5699999999999C490.999 624.059 492.94300000000004 621.953 495.646 620.733C496.738 622.39 498.281 623.5 499.999 623.5C501.71700000000004 623.5 503.26000000000005 622.39 504.35200000000003 620.733C507.055 621.953 508.999 624.059 508.999 625.5699999999999C508.999 626.7139999999999 507.91 627.3939999999999 506.002 627.712ZM504.499 615.295C504.499 612.131 502.62 610.001 499.999 610.001C497.37800000000004 610.001 495.499 612.131 495.499 615.295C495.499 618.693 497.50800000000004 622 499.999 622C502.49 622 504.499 618.693 504.499 615.295Z " fill="#8493a8" fill-opacity="1" transform="matrix(1,0,0,1,-490,-610)"></path></svg>