<svg id="SvgjsSvg1011" xmlns="http://www.w3.org/2000/svg" version="1.1" xmlns:xlink="http://www.w3.org/1999/xlink" xmlns:svgjs="http://svgjs.com/svgjs" width="48" height="45" viewBox="0 0 48 45"><title>icon-audio</title><desc>Created with Avocode.</desc><defs id="SvgjsDefs1012"></defs><path id="SvgjsPath1013" d="M1167.32 872.123C1166.6699999999998 871.855 1165.9199999999998 872.004 1165.4199999999998 872.5060000000001L1154.87 883.1000000000001H1146.75C1145.78 883.1000000000001 1145 883.8800000000001 1145 884.8420000000001V897.4150000000001C1145 898.378 1145.78 899.157 1146.75 899.157H1154.83L1165.4199999999998 909.7520000000001C1165.7599999999998 910.0870000000001 1166.2099999999998 910.263 1166.6599999999999 910.263C1166.8799999999999 910.263 1167.11 910.221 1167.32 910.1310000000001C1167.98 909.863 1168.3999999999999 909.2260000000001 1168.3999999999999 908.5230000000001V873.7320000000002C1168.3999999999999 873.0270000000002 1167.9699999999998 872.3910000000002 1167.32 872.1230000000002ZM1185.48 891.08C1185.48 884.553 1181.6 878.6750000000001 1175.58 876.0980000000001C1174.6899999999998 875.719 1173.6599999999999 876.128 1173.29 877.0140000000001C1172.9099999999999 877.8970000000002 1173.32 878.9210000000002 1174.2 879.3000000000001C1178.94 881.326 1181.99 885.9490000000001 1181.99 891.08C1181.99 896.188 1178.95 900.8000000000001 1174.24 902.827C1173.36 903.208 1172.95 904.232 1173.33 905.114C1173.61 905.774 1174.26 906.167 1174.9399999999998 906.167C1175.1599999999999 906.167 1175.3999999999999 906.121 1175.62 906.023C1181.62 903.446 1185.4799999999998 897.581 1185.4799999999998 891.08ZM1177.76 891.077C1177.76 887.628 1175.71 884.531 1172.52 883.183C1171.6399999999999 882.814 1170.61 883.22 1170.24 884.108C1169.86 884.9939999999999 1170.27 886.016 1171.16 886.3919999999999C1173.0500000000002 887.1899999999999 1174.27 889.03 1174.27 891.0769999999999C1174.27 893.0999999999999 1173.06 894.9309999999999 1171.2 895.7419999999998C1170.31 896.1239999999998 1169.91 897.1489999999999 1170.29 898.0319999999998C1170.57 898.6889999999999 1171.22 899.0789999999998 1171.8899999999999 899.0789999999998C1172.12 899.0789999999998 1172.36 899.0339999999999 1172.59 898.9339999999999C1175.73 897.5719999999999 1177.76 894.4869999999999 1177.76 891.0769999999999ZM1178.54 869.206C1177.6599999999999 868.822 1176.6299999999999 869.2330000000001 1176.25 870.119C1175.87 871.003 1176.28 872.027 1177.17 872.405C1184.67 875.617 1189.51 882.947 1189.51 891.083C1189.51 899.189 1184.68 906.504 1177.21 909.722C1176.32 910.1039999999999 1175.91 911.126 1176.29 912.009C1176.58 912.669 1177.22 913.062 1177.8899999999999 913.062C1178.1299999999999 913.062 1178.37 913.017 1178.59 912.918C1187.34 909.153 1193 900.579 1193 891.081C1193 881.554 1187.33 872.966 1178.54 869.206Z " fill="#406bb1" fill-opacity="1" transform="matrix(1,0,0,1,-1145,-869)"></path></svg>