<svg id="SvgjsSvg1000" xmlns="http://www.w3.org/2000/svg" version="1.1" xmlns:xlink="http://www.w3.org/1999/xlink" xmlns:svgjs="http://svgjs.com/svgjs" width="24" height="25" viewBox="0 0 24 25"><title>icon-phone</title><desc>Created with Avocode.</desc><defs id="SvgjsDefs1001"></defs><path id="SvgjsPath1007" d="M1220.03 117.94C1220.08 118.33 1219.96 118.669 1219.69 118.956L1216.45 122.312C1216.3 122.482 1216.1100000000001 122.62599999999999 1215.8700000000001 122.744C1215.64 122.863 1215.41 122.939 1215.18 122.974C1215.16 122.974 1215.1100000000001 122.97800000000001 1215.03 122.986C1214.95 122.995 1214.85 122.99900000000001 1214.72 122.99900000000001C1214.41 122.99900000000001 1213.91 122.944 1213.22 122.834C1212.53 122.723 1211.68 122.452 1210.68 122.02000000000001C1209.69 121.58800000000001 1208.55 120.93900000000001 1207.29 120.07500000000002C1206.02 119.21100000000001 1204.67 118.02400000000002 1203.24 116.51600000000002C1202.11 115.34700000000002 1201.16 114.22800000000002 1200.42 113.16000000000003C1199.67 112.09300000000003 1199.0700000000002 111.10500000000002 1198.6100000000001 110.19800000000002C1198.16 109.29200000000002 1197.8200000000002 108.47000000000003 1197.5900000000001 107.73200000000003C1197.3600000000001 106.99500000000003 1197.21 106.36000000000003 1197.13 105.82600000000002C1197.0500000000002 105.29200000000002 1197.0100000000002 104.87200000000003 1197.0300000000002 104.56700000000002C1197.0500000000002 104.26200000000001 1197.0500000000002 104.09300000000002 1197.0500000000002 104.05900000000003C1197.0900000000001 103.82100000000003 1197.16 103.58000000000003 1197.2700000000002 103.33400000000003C1197.39 103.08900000000003 1197.5300000000002 102.88900000000004 1197.6900000000003 102.73700000000004L1200.9300000000003 99.35550000000003C1201.1500000000003 99.11860000000003 1201.4100000000003 98.99970000000003 1201.7100000000003 98.99970000000003C1201.9200000000003 98.99970000000003 1202.1100000000004 99.06310000000003 1202.2700000000002 99.19020000000003C1202.4300000000003 99.31760000000003 1202.5700000000002 99.47420000000004 1202.6800000000003 99.66070000000003L1205.2900000000002 104.82100000000004C1205.4300000000003 105.09300000000005 1205.4800000000002 105.38900000000004 1205.41 105.71200000000005C1205.3500000000001 106.03300000000004 1205.21 106.30400000000004 1205 106.52500000000005L1203.8 107.77000000000005C1203.77 107.80500000000005 1203.74 107.86000000000006 1203.72 107.93600000000005C1203.69 108.01200000000004 1203.68 108.07500000000005 1203.68 108.12700000000005C1203.75 108.48200000000006 1203.89 108.88900000000005 1204.1200000000001 109.34700000000005C1204.3100000000002 109.75400000000005 1204.6100000000001 110.25000000000006 1205.0200000000002 110.83400000000005C1205.4300000000003 111.41900000000004 1206.0000000000002 112.09300000000005 1206.7500000000002 112.85500000000005C1207.4800000000002 113.63500000000005 1208.1300000000003 114.24000000000005 1208.7000000000003 114.67300000000004C1209.2700000000002 115.10500000000005 1209.7400000000002 115.42300000000004 1210.1200000000003 115.62600000000005C1210.5100000000004 115.83000000000004 1210.8000000000004 115.95300000000005 1211.0000000000005 115.99500000000005L1211.3100000000004 116.05800000000005C1211.3400000000004 116.05800000000005 1211.3900000000003 116.04500000000004 1211.4600000000005 116.02000000000005C1211.5400000000004 115.99500000000005 1211.5900000000006 115.96500000000005 1211.6200000000006 115.93100000000005L1213.0100000000007 114.45600000000006C1213.3000000000006 114.18600000000006 1213.6400000000008 114.05000000000005 1214.0300000000007 114.05000000000005C1214.3100000000006 114.05000000000005 1214.5300000000007 114.10100000000006 1214.6900000000007 114.20300000000006H1214.7200000000007L1219.4200000000008 117.10100000000006C1219.7600000000007 117.32100000000005 1219.9600000000007 117.60100000000006 1220.0300000000007 117.94000000000005Z " fill="#212121" fill-opacity="1" transform="matrix(1,0,0,1,-1197,-98)"></path></svg>