<svg id="SvgjsSvg1011" xmlns="http://www.w3.org/2000/svg" version="1.1" xmlns:xlink="http://www.w3.org/1999/xlink" xmlns:svgjs="http://svgjs.com/svgjs" width="21" height="16" viewBox="0 0 21 16"><title>icon-mail</title><desc>Created with Avocode.</desc><defs id="SvgjsDefs1012"></defs><path id="SvgjsPath1013" d="M849.734 627H832.234C831.544 627 830.985 626.435 830.985 625.738V612.263C830.985 611.566 831.544 611.0010000000001 832.234 611.0010000000001H849.734C850.4240000000001 611.0010000000001 850.984 611.5660000000001 850.984 612.263V625.738C850.984 626.4350000000001 850.4240000000001 627 849.734 627ZM848.484 624.474V614.7270000000001L841.5930000000001 621.6990000000001C841.4240000000001 621.8700000000001 841.201 621.9520000000001 840.98 621.9470000000001C840.758 621.9520000000001 840.535 621.8700000000001 840.366 621.6990000000001L833.484 614.735V624.474ZM847.284 613.526H834.675L840.9799999999999 619.906Z " fill="#8493a8" fill-opacity="1" transform="matrix(1,0,0,1,-830,-611)"></path></svg>