<svg id="SvgjsSvg1014" xmlns="http://www.w3.org/2000/svg" version="1.1" xmlns:xlink="http://www.w3.org/1999/xlink" xmlns:svgjs="http://svgjs.com/svgjs" width="19" height="18" viewBox="0 0 19 18"><title>icon-phone copy</title><desc>Created with Avocode.</desc><defs id="SvgjsDefs1015"></defs><path id="SvgjsPath1016" d="M1190 624.205C1190.03 624.4970000000001 1189.95 624.7520000000001 1189.74 624.9680000000001L1187.35 627.484C1187.24 627.6120000000001 1187.1 627.719 1186.9299999999998 627.808C1186.7499999999998 627.897 1186.58 627.955 1186.4099999999999 627.98C1186.3999999999999 627.98 1186.37 627.9830000000001 1186.31 627.99C1186.25 627.996 1186.1699999999998 627.999 1186.07 627.999C1185.84 627.999 1185.47 627.958 1184.96 627.876C1184.45 627.793 1183.83 627.5889999999999 1183.0900000000001 627.265C1182.3500000000001 626.941 1181.5200000000002 626.455 1180.5800000000002 625.807C1179.64 625.158 1178.65 624.268 1177.5900000000001 623.1370000000001C1176.7500000000002 622.2600000000001 1176.0500000000002 621.421 1175.5000000000002 620.62C1174.9500000000003 619.82 1174.5100000000002 619.079 1174.1700000000003 618.399C1173.8300000000004 617.719 1173.5800000000004 617.102 1173.4100000000003 616.549C1173.2500000000002 615.997 1173.1300000000003 615.52 1173.0700000000004 615.119C1173.0100000000004 614.719 1172.9900000000005 614.404 1173.0000000000005 614.176C1173.0100000000004 613.947 1173.0200000000004 613.82 1173.0200000000004 613.7940000000001C1173.0400000000004 613.6160000000001 1173.1000000000004 613.4350000000001 1173.1800000000005 613.2510000000001C1173.2600000000004 613.0670000000001 1173.3700000000006 612.9170000000001 1173.4900000000005 612.8030000000001L1175.8800000000006 610.2670000000002C1176.0500000000006 610.0890000000002 1176.2400000000005 610.0000000000001 1176.4600000000005 610.0000000000001C1176.6100000000006 610.0000000000001 1176.7500000000005 610.0480000000001 1176.8700000000006 610.1430000000001C1176.9900000000005 610.2380000000002 1177.0900000000006 610.3560000000001 1177.1800000000005 610.4960000000001L1179.1000000000006 614.3660000000001C1179.2100000000005 614.57 1179.2400000000007 614.7920000000001 1179.1900000000005 615.0340000000001C1179.1500000000005 615.2750000000001 1179.0400000000004 615.4780000000001 1178.8900000000006 615.6440000000001L1178.0100000000004 616.5780000000001C1177.9800000000005 616.604 1177.9600000000005 616.6450000000001 1177.9400000000005 616.7020000000001C1177.9200000000005 616.7590000000001 1177.9200000000005 616.8070000000001 1177.9200000000005 616.8450000000001C1177.9600000000005 617.1120000000002 1178.0700000000006 617.4170000000001 1178.2400000000005 617.7600000000001C1178.3800000000006 618.065 1178.6100000000004 618.4370000000001 1178.9100000000005 618.8760000000001C1179.2100000000005 619.3140000000001 1179.6300000000006 619.82 1180.1800000000005 620.3910000000001C1180.7200000000005 620.9760000000001 1181.2000000000005 621.431 1181.6200000000006 621.7550000000001C1182.0400000000006 622.0790000000001 1182.4000000000005 622.3170000000001 1182.6800000000005 622.4700000000001C1182.9600000000005 622.6220000000002 1183.1800000000005 622.7150000000001 1183.3300000000006 622.7460000000001L1183.5500000000006 622.7940000000001C1183.5700000000006 622.7940000000001 1183.6100000000006 622.7840000000001 1183.6700000000005 622.7650000000001C1183.7200000000005 622.7460000000001 1183.7600000000004 622.724 1183.7900000000004 622.6990000000001L1184.8100000000004 621.5930000000001C1185.0300000000004 621.3890000000001 1185.2800000000004 621.2880000000001 1185.5700000000004 621.2880000000001C1185.7700000000004 621.2880000000001 1185.9300000000003 621.3260000000001 1186.0500000000004 621.4020000000002H1186.0700000000004L1189.5500000000004 623.5760000000001C1189.8000000000004 623.7410000000001 1189.9500000000005 623.9510000000001 1190.0000000000005 624.2050000000002Z " fill="#8493a8" fill-opacity="1" transform="matrix(1,0,0,1,-1172,-610)"></path></svg>