<svg id="SvgjsSvg1011" xmlns="http://www.w3.org/2000/svg" version="1.1" xmlns:xlink="http://www.w3.org/1999/xlink" xmlns:svgjs="http://svgjs.com/svgjs" width="32" height="26" viewBox="0 0 32 26"><title>icon-photo</title><desc>Created with Avocode.</desc><defs id="SvgjsDefs1012"></defs><path id="SvgjsPath1013" d="M180.8 1347.93C180.8 1350.52 178.651 1352.6200000000001 176 1352.6200000000001C173.349 1352.6200000000001 171.2 1350.5200000000002 171.2 1347.93C171.2 1345.3400000000001 173.349 1343.25 176 1343.25C178.651 1343.25 180.8 1345.34 180.8 1347.93ZM192 1341.68V1355.74C192 1357.46 190.56 1358.8700000000001 188.8 1358.8700000000001H163.20000000000002C161.44000000000003 1358.8700000000001 160.00000000000003 1357.46 160.00000000000003 1355.74V1341.68C160.00000000000003 1339.97 161.44000000000003 1338.5600000000002 163.20000000000002 1338.5600000000002H167.04000000000002C167.568 1338.5600000000002 168.13600000000002 1338.16 168.30400000000003 1337.67L169.29600000000002 1334.76C169.46300000000002 1334.27 170.032 1333.87 170.56000000000003 1333.87H181.44000000000003C181.96800000000002 1333.87 182.53600000000003 1334.27 182.70400000000004 1334.76L183.69700000000003 1337.67C183.86300000000003 1338.16 184.43200000000004 1338.5600000000002 184.96000000000004 1338.5600000000002H188.80000000000004C190.56000000000003 1338.5600000000002 192.00000000000003 1339.9700000000003 192.00000000000003 1341.68ZM184 1347.93C184 1343.6200000000001 180.418 1340.1200000000001 176 1340.1200000000001C171.582 1340.1200000000001 168 1343.6200000000001 168 1347.93C168 1352.24 171.582 1355.74 176 1355.74C180.418 1355.74 184 1352.24 184 1347.93ZM188.8 1342.77C188.8 1342.17 188.299 1341.68 187.68 1341.68C187.062 1341.68 186.56 1342.17 186.56 1342.77C186.56 1343.3799999999999 187.062 1343.87 187.68 1343.87C188.298 1343.87 188.8 1343.3799999999999 188.8 1342.77Z " fill="#ffffff" fill-opacity="1" transform="matrix(1,0,0,1,-160,-1333)"></path></svg>