<svg id="SvgjsSvg1020" xmlns="http://www.w3.org/2000/svg" version="1.1" xmlns:xlink="http://www.w3.org/1999/xlink" xmlns:svgjs="http://svgjs.com/svgjs" width="18" height="19" viewBox="0 0 18 19"><title>icon-loupe</title><desc>Created with Avocode.</desc><defs id="SvgjsDefs1021"></defs><path id="SvgjsPath1022" d="M1151.67 306.395L1147.48 301.93899999999996C1148.56 300.62899999999996 1149.15 298.98199999999997 1149.15 297.26699999999994C1149.15 293.25899999999996 1145.96 289.99899999999997 1142.0500000000002 289.99899999999997C1138.13 289.99899999999997 1134.9400000000003 293.25899999999996 1134.9400000000003 297.26699999999994C1134.9400000000003 301.27399999999994 1138.1300000000003 304.53399999999993 1142.0500000000002 304.53399999999993C1143.5200000000002 304.53399999999993 1144.92 304.0799999999999 1146.1200000000001 303.21899999999994L1150.3400000000001 307.70899999999995C1150.5100000000002 307.89599999999996 1150.7500000000002 307.99899999999997 1151.0000000000002 307.99899999999997C1151.2400000000002 307.99899999999997 1151.4700000000003 307.905 1151.6500000000003 307.734C1152.0100000000002 307.37199999999996 1152.0300000000004 306.77099999999996 1151.6700000000003 306.395ZM1142.05 291.895C1144.94 291.895 1147.3 294.305 1147.3 297.267C1147.3 300.229 1144.94 302.638 1142.05 302.638C1139.1499999999999 302.638 1136.79 300.229 1136.79 297.267C1136.79 294.305 1139.1499999999999 291.895 1142.05 291.895Z " fill="#ffffff" fill-opacity="1" transform="matrix(1,0,0,1,-1134,-289)"></path></svg>