<svg id="SvgjsSvg1017" xmlns="http://www.w3.org/2000/svg" version="1.1" xmlns:xlink="http://www.w3.org/1999/xlink" xmlns:svgjs="http://svgjs.com/svgjs" width="17" height="15" viewBox="0 0 17 15"><title>icon-arrow-right</title><desc>Created with Avocode.</desc><defs id="SvgjsDefs1018"></defs><path id="SvgjsPath1019" d="M1086 1405.99H1097.58L1093.31 1410.26C1092.9099999999999 1410.66 1092.9099999999999 1411.3 1093.31 1411.7C1093.7 1412.0900000000001 1094.34 1412.0900000000001 1094.74 1411.7L1100.71 1405.73C1100.91 1405.53 1101.01 1405.26 1101 1405V1404.99V1404.99C1101.01 1404.73 1100.91 1404.46 1100.71 1404.26L1094.74 1398.29C1094.34 1397.8999999999999 1093.7 1397.8999999999999 1093.31 1398.29C1092.9099999999999 1398.69 1092.9099999999999 1399.33 1093.31 1399.73L1097.58 1404H1086C1085.45 1404 1085 1404.44 1085 1404.99C1085 1405.55 1085.45 1405.99 1086 1405.99Z " fill="#406bb1" fill-opacity="1" transform="matrix(1,0,0,1,-1085,-1397)"></path></svg>