<svg id="SvgjsSvg1000" xmlns="http://www.w3.org/2000/svg" version="1.1" xmlns:xlink="http://www.w3.org/1999/xlink" xmlns:svgjs="http://svgjs.com/svgjs" width="23" height="22" viewBox="0 0 23 22"><title>Shape 1</title><desc>Created with Avocode.</desc><defs id="SvgjsDefs1001"></defs><path id="SvgjsPath1007" d="M677.692 37.6732C674.124 41.222 674.113 46.9835 677.679 50.530300000000004C680.789 53.623400000000004 685.607 53.995400000000004 689.117 51.724000000000004L694.4209999999999 56.9988L697.0049999999999 54.4284L691.7169999999999 49.169200000000004C694.1089999999999 45.6293 693.7399999999999 40.797000000000004 690.6029999999998 37.676300000000005C687.0369999999998 34.12930000000001 681.2599999999999 34.124500000000005 677.6919999999999 37.6732ZM688.03 47.9419C685.8919999999999 50.0678 682.4159999999999 50.068599999999996 680.28 47.9441C678.143 45.8194 678.144 42.3613 680.2819999999999 40.2356C682.4189999999999 38.1095 685.896 38.108599999999996 688.0319999999999 40.2335C690.1679999999999 42.3581 690.1669999999999 45.8161 688.03 47.9419Z " fill="#f1b333" fill-opacity="1" transform="matrix(1,0,0,1,-675,-35)"></path></svg>